<svg width="140" height="38" viewBox="0 0 140 38" fill="none" xmlns="http://www.w3.org/2000/svg">
<circle cx="18.5946" cy="18.5946" r="9.17117" stroke="#F6A796" stroke-width="8"/>
<circle cx="18.5946" cy="18.5946" r="17.0946" stroke="#F6A796" stroke-width="3" stroke-dasharray="3 15"/>
<path d="M47.754 23.438C47.91 24.894 49.236 27.39 53.084 27.39C56.438 27.39 58.05 25.258 58.05 23.178C58.05 21.306 56.776 19.772 54.254 19.252L52.434 18.862C51.732 18.732 51.264 18.342 51.264 17.718C51.264 16.99 51.992 16.444 52.902 16.444C54.358 16.444 54.904 17.406 55.008 18.16L57.894 17.51C57.738 16.132 56.516 13.818 52.876 13.818C50.12 13.818 48.092 15.716 48.092 18.004C48.092 19.798 49.21 21.28 51.68 21.826L53.37 22.216C54.358 22.424 54.748 22.892 54.748 23.464C54.748 24.14 54.202 24.738 53.058 24.738C51.55 24.738 50.796 23.802 50.718 22.788L47.754 23.438ZM73.2324 14.208H68.7084L64.2884 18.966V8.176H60.8304V27H64.2884V23.62L65.7184 22.112L69.0984 27H73.3364L68.1104 19.59L73.2324 14.208ZM78.8118 27V14.208H75.3538V27H78.8118ZM74.9378 10.022C74.9378 11.166 75.8998 12.128 77.0698 12.128C78.2658 12.128 79.2018 11.166 79.2018 10.022C79.2018 8.826 78.2658 7.864 77.0698 7.864C75.8998 7.864 74.9378 8.826 74.9378 10.022ZM85.972 19.642C85.972 18.16 86.856 16.99 88.364 16.99C90.028 16.99 90.73 18.108 90.73 19.538V27H94.188V18.94C94.188 16.132 92.732 13.87 89.56 13.87C88.182 13.87 86.648 14.468 85.868 15.794V14.208H82.514V27H85.972V19.642ZM109.892 8.176H106.486V15.482C106.122 14.806 105.082 13.896 102.872 13.896C99.2576 13.896 96.7356 16.834 96.7356 20.578C96.7356 24.452 99.3356 27.312 102.976 27.312C104.692 27.312 105.992 26.532 106.564 25.518C106.564 26.116 106.642 26.74 106.694 27H109.996C109.944 26.48 109.892 25.544 109.892 24.686V8.176ZM100.22 20.578C100.22 18.29 101.624 16.99 103.392 16.99C105.16 16.99 106.538 18.264 106.538 20.552C106.538 22.866 105.16 24.218 103.392 24.218C101.572 24.218 100.22 22.866 100.22 20.578ZM116.165 19.148C116.243 17.978 117.231 16.626 119.025 16.626C121.001 16.626 121.833 17.874 121.885 19.148H116.165ZM122.223 22.476C121.807 23.62 120.923 24.426 119.311 24.426C117.595 24.426 116.165 23.204 116.087 21.514H125.239C125.239 21.462 125.291 20.942 125.291 20.448C125.291 16.34 122.925 13.818 118.973 13.818C115.697 13.818 112.681 16.47 112.681 20.552C112.681 24.868 115.775 27.39 119.285 27.39C122.431 27.39 124.459 25.544 125.109 23.334L122.223 22.476ZM126.277 27H130.177C130.619 26.298 132.335 23.776 132.803 23.074L135.481 27H139.537L134.909 20.474L139.381 14.208H135.455L132.933 18.004C132.491 17.302 130.827 14.91 130.385 14.208H126.277L130.827 20.578L126.277 27Z" fill="black"/>
</svg>
